<?xml version="1.0" encoding="utf-8"?>
<!-- Generator: Adobe Illustrator 23.1.0, SVG Export Plug-In . SVG Version: 6.00 Build 0)  -->
<svg version="1.1" id="Layer_1" xmlns="http://www.w3.org/2000/svg" xmlns:xlink="http://www.w3.org/1999/xlink" x="0px" y="0px"
	 viewBox="0 0 283.46 283.46" style="enable-background:new 0 0 283.46 283.46;" xml:space="preserve">
<style type="text/css">
	.st0{fill:#FFFFFF;}
</style>
<g>
	<path d="M5.43,230.4c0-55.31,0-110.63,0-165.94c0.12-0.24,0.3-0.47,0.34-0.73c1.66-11.92,12.01-20.95,25.26-20.72
		c10.61,0.18,21.23,0.04,31.85,0.04c63.7,0,127.39-0.01,191.09,0.01c14.88,0,25.48,10.16,25.5,24.75
		c0.08,53.08,0.08,106.16-0.08,159.24c-0.01,3.71-0.92,7.71-2.51,11.06c-4.57,9.59-12.73,13.71-23.18,13.71
		c-74.14-0.01-148.27,0-222.41,0c-0.62,0-1.25,0.01-1.87-0.02c-7.72-0.34-14.09-3.34-18.95-9.48C7.68,238.78,6.45,234.65,5.43,230.4
		z M33.05,59.24c36.84,36.52,73.29,72.66,109.45,108.5c36.34-36.32,72.49-72.45,108.55-108.5C178.8,59.24,106.25,59.24,33.05,59.24z
		 M111.09,158.59c-26.11,26.1-51.66,51.66-76.98,76.98c72.1,0,144.7,0,216.8,0c-25.28-25.28-50.71-50.72-76.46-76.47
		c-0.4,0.49-0.95,1.31-1.64,2c-7.81,7.83-15.62,15.66-23.47,23.45c-4.11,4.08-8.51,4.06-12.68,0.04c-1.8-1.73-3.57-3.49-5.32-5.28
		C124.49,172.31,117.64,165.3,111.09,158.59z M21.71,70.59c0,51.46,0,102.31,0,153.17c25.65-25.65,51.2-51.18,76.91-76.89
		C73.15,121.61,47.59,96.26,21.71,70.59z M187.32,147.16c25.37,25.37,50.78,50.78,75.93,75.93c0-50.28,0-101.11,0-151.86
		C237.81,96.67,212.42,122.05,187.32,147.16z"/>
	<path class="st0" d="M33.05,59.24c73.21,0,145.75,0,218,0c-36.07,36.05-72.22,72.18-108.55,108.5
		C106.34,131.9,69.89,95.76,33.05,59.24z"/>
	<path class="st0" d="M111.09,158.59c6.56,6.71,13.4,13.72,20.26,20.72c1.75,1.78,3.52,3.54,5.32,5.28
		c4.16,4.02,8.57,4.04,12.68-0.04c7.85-7.79,15.66-15.62,23.47-23.45c0.69-0.69,1.24-1.51,1.64-2
		c25.75,25.75,51.18,51.19,76.46,76.47c-72.09,0-144.69,0-216.8,0C59.42,210.25,84.98,184.69,111.09,158.59z"/>
	<path class="st0" d="M21.71,70.59c25.88,25.67,51.44,51.02,76.91,76.28c-25.72,25.71-51.26,51.24-76.91,76.89
		C21.71,172.9,21.71,122.05,21.71,70.59z"/>
	<path class="st0" d="M187.32,147.16c25.1-25.1,50.49-50.49,75.93-75.93c0,50.74,0,101.57,0,151.86
		C238.1,197.94,212.69,172.53,187.32,147.16z"/>
</g>
</svg>
