<?xml version="1.0" encoding="utf-8"?>
<!-- Generator: Adobe Illustrator 23.1.0, SVG Export Plug-In . SVG Version: 6.00 Build 0)  -->
<svg version="1.1" id="Layer_1" xmlns="http://www.w3.org/2000/svg" xmlns:xlink="http://www.w3.org/1999/xlink" x="0px" y="0px"
	 viewBox="0 0 283.46 283.46" style="enable-background:new 0 0 283.46 283.46;" xml:space="preserve">
<style type="text/css">
	.st0{stroke:#000000;stroke-miterlimit:10;}
	.st1{fill:#FFFFFF;stroke:#000000;stroke-miterlimit:10;}
</style>
<g>
	<path class="st0" d="M8.39,152.16c0.01-6.37,0.02-12.64,0.03-19.02c0.68-4.72,1.12-9.49,2.1-14.14
		C21.7,66.05,53.02,31.05,104.56,14.58c8.59-2.74,17.81-3.53,26.76-5.11c2.59-0.46,4.64,1.22,4.83,3.56
		c0.2,2.44-1.41,3.97-4.42,4.43c-6.5,1-13.1,1.67-19.48,3.19c-26.81,6.4-48.98,20.48-66.66,41.53
		c-15.63,18.61-24.91,40.1-28.26,64.16c-0.06,0.43-0.09,0.87-0.1,1.3c-0.01,0.34,0.02,0.68,0.05,1.32
		c10.03-1.94,18.96,0.28,26.56,7.09c5.17,4.63,8.34,10.45,9.31,17.31c1.23,8.69-0.88,16.59-6.55,23.35
		c-5.64,6.72-12.99,10.17-21.99,10.64c2.92,7.98,6.56,15.24,11,22.07c20.68,31.79,49.64,51.53,87.13,57.23
		c39.69,6.03,74.86-4.92,104.55-32.07c21.15-19.34,34.16-43.48,38.59-71.78c5.76-36.77-3.16-70.01-26.45-99.06
		c-18.29-22.81-41.96-37.37-70.51-43.77c-5.31-1.19-10.79-1.66-16.19-2.45c-0.69-0.1-1.38-0.14-2.07-0.25
		c-2.91-0.49-4.27-2.01-4.02-4.44c0.24-2.31,2.18-3.83,4.93-3.44c7.04,0.98,14.22,1.5,21.05,3.31
		c49.53,13.07,82.71,43.94,97.49,93.03c21.96,72.96-23.57,149.9-98.07,166.92c-6.82,1.56-13.87,2.12-20.81,3.16
		c-0.85,0.13-1.69,0.33-2.53,0.51h-13.56c-3.43-0.39-6.87-0.71-10.28-1.17c-27.99-3.83-52.58-15.05-73.34-34.27
		c-22.98-21.28-36.91-47.46-41.64-78.47C9.36,158.98,8.89,155.57,8.39,152.16z M15.94,143.5c0.28,11.48,1.74,22.79,4.98,33.85
		c0.42,1.45,1.02,1.89,2.48,1.93c12.04,0.33,21.9-9.55,21.82-21.95c-0.08-11.85-10.33-21.69-22.09-21.2
		C16.22,136.4,15.85,136.78,15.94,143.5z"/>
	<path class="st0" d="M95.18,238.85c-14-0.22-24.68-10.79-24.9-24c-0.21-13.05,10.4-24.26,23.67-24.55
		c9.53-0.2,16.88,4.05,21.77,12.3c1.61,2.71,1.13,5.08-1.11,6.3c-2.13,1.16-4.09,0.36-5.74-2.36c-3.84-6.3-9.48-9.09-16.73-8.07
		c-6.61,0.93-11.03,4.88-13.11,11.19c-2.57,7.79,1.17,16.15,8.57,19.67c7.49,3.56,16.26,1.04,20.82-5.99
		c2.3-3.55,4.32-4.43,6.59-2.87c2.18,1.5,2.21,4-0.06,7.36C110.08,235.05,103.23,238.68,95.18,238.85z"/>
	<path class="st0" d="M157.2,125.47c0.07-11.53,9.54-20.92,20.97-20.78c11.32,0.13,20.71,9.59,20.72,20.89
		c0.02,11.47-9.42,20.84-20.95,20.81C166.33,146.36,157.13,137.08,157.2,125.47z M190.86,125.65c0.02-7.25-5.6-12.91-12.83-12.93
		c-7.19-0.02-12.94,5.68-12.96,12.83c-0.01,7.15,5.73,12.94,12.86,12.96C185.09,138.54,190.83,132.82,190.86,125.65z"/>
	<path class="st0" d="M97.81,176.78c-7.37,0.03-13.51-6.09-13.44-13.41c0.07-7.2,6.15-13.27,13.33-13.3
		c7.32-0.04,13.44,6.11,13.39,13.46C111.04,170.83,105.11,176.75,97.81,176.78z M103.1,163.42c-0.01-3.01-2.24-5.25-5.25-5.29
		c-3.15-0.04-5.45,2.24-5.43,5.38c0.02,3.03,2.24,5.26,5.25,5.3C100.8,168.84,103.12,166.54,103.1,163.42z"/>
	<path class="st0" d="M150.48,77.41c0,7.32-5.86,13.24-13.19,13.33c-7.37,0.09-13.39-5.92-13.39-13.36
		c0.01-7.29,5.91-13.29,13.16-13.37C144.37,63.92,150.48,70.03,150.48,77.41z M137.17,82.75c2.98,0,5.5-2.49,5.46-5.41
		c-0.04-2.87-2.41-5.22-5.33-5.27c-3.04-0.06-5.54,2.3-5.58,5.27C131.69,80.26,134.19,82.75,137.17,82.75z"/>
	<path class="st0" d="M137.32,187.77c-2.46,0.07-4.52-1.9-4.56-4.36c-0.04-2.46,1.88-4.54,4.31-4.67c2.33-0.12,4.47,1.94,4.56,4.41
		C141.71,185.61,139.76,187.7,137.32,187.77z"/>
	<path class="st0" d="M173.42,77.3c0.03,2.46-1.95,4.53-4.39,4.59c-2.45,0.06-4.46-1.9-4.52-4.41c-0.05-2.46,1.92-4.55,4.34-4.6
		C171.23,72.82,173.39,74.91,173.42,77.3z"/>
	<path class="st1" d="M15.95,143.5c-0.09-6.71,0.28-7.09,7.18-7.38c11.76-0.49,22.01,9.35,22.09,21.2
		c0.08,12.4-9.78,22.28-21.82,21.95c-1.46-0.04-2.06-0.48-2.48-1.93C17.69,166.29,16.23,154.98,15.95,143.5z"/>
	<path class="st1" d="M190.86,125.65c-0.02,7.18-5.76,12.89-12.93,12.87c-7.13-0.02-12.87-5.81-12.86-12.96
		c0.01-7.16,5.76-12.85,12.96-12.83C185.26,112.74,190.88,118.4,190.86,125.65z"/>
	<path class="st1" d="M103.1,163.42c0.01,3.12-2.3,5.42-5.43,5.38c-3.01-0.03-5.22-2.27-5.25-5.3c-0.02-3.14,2.28-5.42,5.43-5.38
		C100.86,158.17,103.09,160.41,103.1,163.42z"/>
	<path class="st1" d="M137.17,82.75c-2.99,0-5.49-2.49-5.45-5.42c0.04-2.97,2.53-5.33,5.58-5.27c2.91,0.06,5.29,2.41,5.33,5.27
		C142.67,80.26,140.16,82.75,137.17,82.75z"/>
</g>
</svg>
