<?xml version="1.0" encoding="utf-8"?>
<!-- Generator: Adobe Illustrator 23.1.0, SVG Export Plug-In . SVG Version: 6.00 Build 0)  -->
<svg version="1.1" id="Layer_1" xmlns="http://www.w3.org/2000/svg" xmlns:xlink="http://www.w3.org/1999/xlink" x="0px" y="0px"
	 viewBox="0 0 283.46 283.46" style="enable-background:new 0 0 283.46 283.46;" xml:space="preserve">
<style type="text/css">
	.st0{stroke:#231F20;stroke-miterlimit:10;}
	.st1{fill:#FFFFFF;stroke:#231F20;stroke-miterlimit:10;}
</style>
<g>
	<path class="st0" d="M274,148.99c-0.66,4.99-1.11,10.02-2.02,14.97c-6.9,37.87-26.56,67.41-58.74,88.39
		c-22.62,14.74-47.74,21.56-74.68,20.62c-39.51-1.38-72.12-17.44-97.78-47.54c-1.98-2.33-1.98-4.52-0.12-6.12
		c1.82-1.57,4.14-1.12,6.19,1.32c15.47,18.36,34.54,31.43,57.41,38.77c65.81,21.13,135.7-15.08,156.39-81.04
		c1.71-5.46,2.82-11.12,4-16.73c0.65-3.09,0.85-6.27,0.8-9.58c-0.37,0.67-0.78,1.31-1.11,2c-8.47,17.71-20.99,31.83-37.54,42.37
		c-0.65,0.41-1.28,0.89-1.99,1.18c-1.96,0.8-3.73,0.57-4.99-1.29c-1.13-1.66-0.7-3.96,1.06-5.23c2.78-2,5.74-3.77,8.46-5.85
		c14.93-11.39,25.48-25.98,31.74-43.69c0.26-0.73,0.49-1.46,0.77-2.18c1.01-2.56,2.88-4.09,5.62-4.19c2.6-0.09,4.61,1.12,5.89,3.44
		c0.2,0.37,0.42,0.73,0.63,1.09C274,142.82,274,145.91,274,148.99z"/>
	<path class="st0" d="M143.73,9.46c2.29,1.18,4.14,2.7,4.52,5.48c0.42,3.06-1.34,5.69-4.9,6.9c-9.99,3.39-19.32,8.05-27.57,14.64
		C90.73,56.49,78,82.52,79.27,114.66c1.79,45.33,35.39,82.26,80.21,88.74c14.91,2.15,29.59,0.77,43.87-4.24
		c0.73-0.26,1.45-0.52,2.19-0.75c2.62-0.84,4.79,0.01,5.52,2.16c0.74,2.17-0.35,4.22-3.04,5.1c-4.39,1.43-8.78,2.98-13.29,3.95
		c-46.3,9.98-91.87-11.98-113.06-54.38C56.95,105.8,78.46,43.42,128.37,19.74c1.14-0.54,2.26-1.11,3.39-1.67
		c-0.06-0.24-0.12-0.49-0.18-0.73c-6.51,1.22-13.07,2.2-19.51,3.71c-9.63,2.25-18.78,5.9-27.55,10.5c-1.03,0.54-2.22,1.02-3.36,1.06
		c-1.82,0.07-3.05-1.04-3.48-2.83c-0.52-2.19,0.5-3.72,2.4-4.58c6.4-2.88,12.71-6.01,19.28-8.44c10.49-3.89,21.42-6.06,32.6-6.87
		c0.67-0.05,1.32-0.28,1.98-0.43C137.21,9.46,140.47,9.46,143.73,9.46z"/>
	<path class="st0" d="M274,253c-1.61,1.86-3.09,3.84-4.86,5.53c-1.23,1.17-1.54,2.32-1.18,3.87c0.33,1.42,0.62,2.85,0.77,4.3
		c0.46,4.37-4,7.99-7.72,5.78c-4.36-2.59-7.92-2.87-12.32-0.04c-3.48,2.23-8.46-1.07-7.65-5.09c1.06-5.23,0.03-8.89-4.05-12.48
		c-3.01-2.65-1.13-8.24,2.88-8.57c5.36-0.44,8.23-2.79,10.36-7.6c1.69-3.81,7.58-3.74,9.2,0.13c2.03,4.85,4.97,7.22,10.19,7.35
		c2.37,0.06,3.48,2.24,4.38,4.25C274,251.29,274,252.14,274,253z M263.7,253c-4.53,0.04-7.33-2.11-8.95-6.36
		c-1.24,4.5-4.41,6.1-9.19,6.32c4.02,2.89,5.17,6.2,3.78,10.5c3.7-2.67,7.2-2.42,11.27,0.32C259.01,258.94,260.29,255.73,263.7,253z
		"/>
	<path class="st0" d="M217.36,9.46c3.02,1.19,4.17,3.92,5.29,6.61c0.74,1.77,1.75,2.79,3.8,2.74c1.27-0.03,2.55,0.28,3.81,0.55
		c4.62,1,6.59,6.39,3.04,9.45c-3.67,3.17-4.7,6.3-3.69,11.05c1.06,4.97-3.87,8.36-8.2,5.72c-3.88-2.37-7.14-2.78-10.88,0
		c-2.05,1.53-4.44,1.22-6.46-0.38c-1.93-1.53-2.48-3.62-1.98-6c0.05-0.25,0.09-0.51,0.18-0.75c1.29-3.49,0.32-6.17-2.66-8.4
		c-2.16-1.62-3.48-3.82-2.55-6.73c0.96-2.97,3.25-4.07,6.14-4.13c3.4-0.07,5.57-1.46,6.91-4.8c0.76-1.89,2.72-3.3,4.15-4.93
		C215.3,9.46,216.33,9.46,217.36,9.46z M206.54,26.31c4.21,2.89,5.15,6.28,3.74,11.02c4.04-3.11,7.54-2.94,11.2-0.51
		c-1.42-4.35-0.1-7.6,3.35-10.47c-4.74,0.22-7.23-2.28-8.86-6.97C214.57,24.47,211.6,26.34,206.54,26.31z"/>
	<path class="st0" d="M30.97,9.46c3.02,1.19,4.18,3.93,5.29,6.61c0.74,1.78,1.76,2.78,3.81,2.73c1.27-0.03,2.56,0.28,3.81,0.55
		c4.62,1,6.58,6.4,3.02,9.45c-3.7,3.17-4.66,6.33-3.67,11.07c1.04,4.97-3.9,8.34-8.23,5.68c-3.9-2.39-7.17-2.73-10.89,0.03
		c-1.97,1.46-4.27,1.2-6.25-0.27c-2.07-1.54-2.67-3.69-2.14-6.18c0.05-0.25,0.09-0.51,0.18-0.75c1.32-3.52,0.26-6.17-2.72-8.38
		c-2.19-1.62-3.47-3.86-2.54-6.73c0.95-2.96,3.27-4.06,6.16-4.11c3.41-0.06,5.55-1.5,6.89-4.82c0.76-1.89,2.75-3.28,4.18-4.9
		C28.91,9.46,29.94,9.46,30.97,9.46z M24.26,36.77c3.69-2.7,7.17-2.22,11.26,0.57c-1.92-4.92-0.64-8.18,2.79-10.97
		c-4.57-0.05-7.24-2.2-8.76-6.93c-1.47,4.83-4.5,6.75-9.47,6.94C24.41,29.22,25.17,32.6,24.26,36.77z"/>
	<path class="st0" d="M10.33,135.81c1.31-38.3,18.83-73.72,53.54-100.46c1.78-1.37,3.57-2.13,5.6-0.64
		c2.34,1.72,1.97,4.43-0.68,6.68c-5.09,4.33-10.47,8.4-15.09,13.2c-24.87,25.83-36.83,56.8-35.46,92.64
		c0.8,20.85,6.85,40.28,17.65,58.18c0.31,0.51,0.63,1.02,0.92,1.55c1.27,2.33,0.88,4.45-1.04,5.62c-1.86,1.14-4.27,0.6-5.48-1.64
		c-3.44-6.41-7.1-12.75-9.93-19.42C13.56,175.45,10.4,158.59,10.33,135.81z"/>
	<path class="st0" d="M169.88,111.86c0.43-2.49,1.13-5.68,1.45-8.91c0.11-1.15-0.39-2.65-1.14-3.54c-1.77-2.08-3.86-3.9-5.84-5.8
		c-2.15-2.06-3.2-4.44-2.17-7.41c1.01-2.93,3.22-4.29,6.19-4.66c2.04-0.26,4.07-0.82,6.11-0.86c3.03-0.06,4.85-1.3,5.86-4.21
		c0.78-2.25,2.02-4.35,3.14-6.47c1.23-2.31,3.2-3.54,5.84-3.57c2.73-0.03,4.79,1.19,6.05,3.63c1.34,2.59,2.74,5.15,3.85,7.84
		c0.74,1.79,1.91,2.4,3.68,2.59c2.64,0.28,5.27,0.72,7.9,1.08c2.89,0.4,5.02,1.86,5.87,4.69c0.8,2.66,0.19,5.08-1.9,7.05
		c-1.62,1.53-3.05,3.32-4.83,4.62c-2.6,1.91-3,4.19-2.21,7.11c0.58,2.14,0.82,4.38,1.18,6.58c0.43,2.69-0.46,4.91-2.61,6.57
		c-2.1,1.63-4.42,1.81-6.77,0.66c-2.69-1.32-5.37-2.68-7.97-4.17c-1.41-0.81-2.57-0.91-4.03-0.06c-2.67,1.54-5.39,3.02-8.21,4.27
		C174.62,120.95,169.8,117.68,169.88,111.86z M170.86,88.92c2.37,2.35,4.36,4.34,6.38,6.3c1.92,1.87,2.73,4.04,2.19,6.75
		c-0.55,2.78-0.9,5.6-1.42,8.91c2.62-1.37,4.74-2.31,6.68-3.53c3.27-2.06,6.39-1.99,9.66,0c2.01,1.22,4.16,2.21,6.68,3.53
		c-0.51-3.15-0.8-5.78-1.38-8.35c-0.69-3.1,0.17-5.56,2.47-7.63c2.01-1.81,3.99-3.65,6.48-5.93c-3.48-0.51-6-0.98-8.54-1.24
		c-3.3-0.34-5.57-1.91-6.91-4.96c-1.05-2.38-2.29-4.69-3.65-7.45c-1.47,2.97-2.74,5.38-3.88,7.85c-1.27,2.77-3.43,4.15-6.38,4.52
		C176.62,88.03,174,88.46,170.86,88.92z"/>
	<path class="st0" d="M122.56,152.38c0.02-0.25-0.04-0.71,0.11-1.09c1.69-4.3,0.19-7.41-3.35-10.05c-1.95-1.46-2.41-3.75-1.63-6.06
		c0.74-2.21,2.38-3.76,4.74-3.73c4.74,0.05,7.47-2.16,8.94-6.58c0.73-2.18,2.66-3.28,5.05-3.3c2.4-0.02,4.4,1.06,5.1,3.22
		c1.49,4.58,4.45,6.33,9.15,6.75c4.84,0.43,6.8,6.22,3.12,9.39c-3.7,3.2-4.67,6.34-3.55,11.08c1.09,4.66-4.04,8.19-8.16,5.65
		c-3.98-2.45-7.18-2.52-11.17-0.03C126.92,160.12,122.48,157.15,122.56,152.38z M136.41,132.02c-1.5,4.28-4.22,6.44-8.89,6.48
		c3.88,2.72,4.64,6.21,3.42,10.48c3.68-2.77,7.18-2.54,11.3,0.33c-1.72-4.9-0.29-8.14,3.57-11.15
		C140.54,138.49,137.9,136.16,136.41,132.02z"/>
	<path class="st0" d="M227.03,108.8c2.19-0.03,3.88,1.67,3.84,3.88c-0.03,2.04-1.72,3.75-3.73,3.78c-2.08,0.03-3.93-1.84-3.89-3.93
		C223.3,110.47,224.96,108.82,227.03,108.8z"/>
	<path class="st0" d="M29.93,250.23c0.05-2.03,1.77-3.74,3.78-3.76c2.08-0.02,3.94,1.86,3.9,3.94c-0.05,2.12-1.9,3.8-4.07,3.7
		C31.48,254,29.88,252.29,29.93,250.23z"/>
	<path class="st0" d="M125.39,80.35c-0.02,2.08-1.64,3.73-3.71,3.77c-2.16,0.05-3.91-1.69-3.89-3.86c0.02-2.02,1.71-3.76,3.72-3.81
		C123.61,76.4,125.41,78.21,125.39,80.35z"/>
	<path class="st0" d="M176.62,176.22c-2.1-0.04-3.82-1.91-3.72-4.04c0.1-2.07,1.78-3.66,3.85-3.63c2.16,0.04,3.83,1.83,3.73,4
		C180.38,174.59,178.62,176.26,176.62,176.22z"/>
	<path class="st1" d="M263.7,253c-3.42,2.73-4.69,5.94-3.08,10.78c-4.07-2.74-7.58-2.99-11.27-0.32c1.4-4.3,0.24-7.61-3.78-10.5
		c4.78-0.22,7.94-1.82,9.19-6.32C256.37,250.89,259.17,253.04,263.7,253z"/>
	<path class="st1" d="M206.54,26.31c5.06,0.03,8.03-1.84,9.43-6.93c1.62,4.68,4.11,7.19,8.86,6.97c-3.45,2.87-4.76,6.12-3.35,10.47
		c-3.66-2.43-7.15-2.6-11.2,0.51C211.69,32.58,210.75,29.19,206.54,26.31z"/>
	<path class="st1" d="M24.26,36.77c0.91-4.17,0.15-7.55-4.18-10.39c4.97-0.2,8-2.11,9.47-6.94c1.52,4.73,4.19,6.89,8.76,6.93
		c-3.44,2.79-4.72,6.05-2.79,10.97C31.44,34.55,27.95,34.07,24.26,36.77z"/>
	<path class="st1" d="M170.86,88.92c3.14-0.46,5.76-0.89,8.38-1.23c2.95-0.38,5.11-1.76,6.38-4.52c1.14-2.47,2.41-4.88,3.88-7.85
		c1.36,2.76,2.6,5.07,3.65,7.45c1.35,3.06,3.61,4.63,6.91,4.96c2.54,0.26,5.06,0.72,8.54,1.24c-2.49,2.28-4.48,4.11-6.48,5.93
		c-2.3,2.07-3.16,4.53-2.47,7.63c0.58,2.57,0.87,5.2,1.38,8.35c-2.52-1.32-4.67-2.31-6.68-3.53c-3.26-1.99-6.39-2.05-9.66,0
		c-1.94,1.22-4.06,2.16-6.68,3.53c0.52-3.31,0.87-6.13,1.42-8.91c0.54-2.71-0.28-4.88-2.19-6.75
		C175.22,93.26,173.23,91.27,170.86,88.92z"/>
	<path class="st1" d="M136.41,132.02c1.49,4.15,4.13,6.47,9.41,6.14c-3.86,3.02-5.3,6.25-3.57,11.15c-4.12-2.87-7.62-3.1-11.3-0.33
		c1.22-4.27,0.46-7.76-3.42-10.48C132.19,138.46,134.91,136.29,136.41,132.02z"/>
</g>
</svg>
