<?xml version="1.0" encoding="utf-8"?>
<!-- Generator: Adobe Illustrator 23.1.0, SVG Export Plug-In . SVG Version: 6.00 Build 0)  -->
<svg version="1.1" id="Layer_1" xmlns="http://www.w3.org/2000/svg" xmlns:xlink="http://www.w3.org/1999/xlink" x="0px" y="0px"
	 viewBox="0 0 283.46 283.46" style="enable-background:new 0 0 283.46 283.46;" xml:space="preserve">
<style type="text/css">
	.st0{fill:#FFFFFF;}
</style>
<g>
	<path d="M149.01,8.3c5.45,0.88,10.95,1.5,16.33,2.68c39.04,8.57,70.73,42.15,77.13,81.65c4.7,28.96-1.63,55.31-19.13,78.85
		c-24.97,33.59-50.1,67.06-75.1,100.62c-1.2,1.61-2.48,1.85-4.29,2.08c-4.43,0.57-7.08-1.14-9.75-4.75
		c-23.91-32.33-47.97-64.54-72.15-96.67c-14.74-19.58-22.63-41.48-21.37-65.96c2.09-40.6,21.87-70.15,58.03-88.61
		c10.95-5.59,22.77-8.53,35.05-9.48c0.59-0.05,1.17-0.27,1.75-0.41C140.01,8.3,144.51,8.3,149.01,8.3z M142.33,76.31
		c-18.53-0.03-33.75,15.07-33.82,33.54c-0.07,18.66,15.06,33.92,33.67,33.95c18.53,0.03,33.74-15.06,33.82-33.54
		C176.08,91.59,160.95,76.34,142.33,76.31z"/>
	<path class="st0" d="M142.33,76.31c18.62,0.03,33.75,15.28,33.67,33.94c-0.08,18.48-15.29,33.57-33.82,33.54
		c-18.6-0.03-33.74-15.29-33.67-33.95C108.59,91.38,123.81,76.29,142.33,76.31z"/>
</g>
</svg>
