<?xml version="1.0" encoding="utf-8"?>
<!-- Generator: Adobe Illustrator 23.1.0, SVG Export Plug-In . SVG Version: 6.00 Build 0)  -->
<svg version="1.1" id="Layer_1" xmlns="http://www.w3.org/2000/svg" xmlns:xlink="http://www.w3.org/1999/xlink" x="0px" y="0px"
	 viewBox="0 0 283.46 283.46" style="enable-background:new 0 0 283.46 283.46;" xml:space="preserve">
<style type="text/css">
	.st0{stroke:#231F20;stroke-miterlimit:10;}
	.st1{fill:#FFFFFF;stroke:#231F20;stroke-miterlimit:10;}
</style>
<g>
	<path class="st0" d="M142.51,6.54c2.51,1.05,3.87,2.8,3.85,5.66c-0.06,8.89,0.03,17.79-0.04,26.68c-0.03,3.92-2.75,6.18-6.07,5.29
		c-2.35-0.63-3.59-2.25-3.6-4.61c-0.06-9.42-0.18-18.85,0.11-28.26c0.05-1.62,2.02-3.18,3.11-4.77
		C140.74,6.54,141.62,6.54,142.51,6.54z"/>
	<path class="st0" d="M141.52,214.37c-39.88,0.07-72.47-32.46-72.52-72.4c-0.06-39.9,32.46-72.46,72.41-72.51
		c39.92-0.05,72.44,32.42,72.51,72.4C213.98,181.76,181.49,214.3,141.52,214.37z M141.4,204.64c34.36,0.12,62.31-27.76,62.62-62.46
		c0.31-34.4-27.9-62.7-62.54-62.74c-34.57-0.04-62.44,27.71-62.62,62.37C78.7,176.31,106.77,204.52,141.4,204.64z"/>
	<path class="st0" d="M194,58.06c-4.27,0.09-6.63-2.77-5.93-5.83c0.17-0.76,0.53-1.5,0.92-2.18c4.29-7.48,8.61-14.95,12.92-22.42
		c0.26-0.45,0.57-0.89,0.91-1.29c1.66-1.95,4.07-2.45,6.16-1.3c2.15,1.18,3.13,3.74,2.07,6.15c-0.88,2-2.09,3.87-3.18,5.77
		c-3.43,5.95-6.77,11.95-10.38,17.79C196.53,56.31,194.75,57.37,194,58.06z"/>
	<path class="st0" d="M146.34,258.17c0,4.49,0.04,8.98-0.01,13.47c-0.04,3.45-2.06,5.68-4.97,5.61c-2.81-0.06-4.73-2.19-4.75-5.53
		c-0.05-9.07-0.05-18.13-0.01-27.2c0.01-3.35,1.91-5.38,4.82-5.42c2.93-0.03,4.82,1.93,4.89,5.33c0.08,4.58,0.02,9.15,0.02,13.73
		C146.33,258.17,146.34,258.17,146.34,258.17z"/>
	<path class="st0" d="M95.55,53.75c-1.1,1.27-2.05,3.01-3.51,3.88c-1.75,1.05-3.79,0.53-5.27-1.07c-0.59-0.64-1.06-1.4-1.5-2.15
		c-4.1-7.07-8.19-14.15-12.26-21.25c-0.48-0.83-0.98-1.7-1.22-2.62c-0.59-2.3,0.15-4.23,2.21-5.42c2.04-1.18,4.08-0.94,5.79,0.76
		c0.61,0.61,1.11,1.36,1.55,2.12c4.19,7.23,8.37,14.46,12.51,21.71C94.44,50.76,94.79,51.94,95.55,53.75z"/>
	<path class="st0" d="M57.61,89.66c-0.03,4.59-3.42,6.8-6.77,5.49c-1.22-0.48-2.34-1.22-3.48-1.87
		c-6.48-3.73-12.95-7.46-19.42-11.22c-0.83-0.48-1.67-1.01-2.37-1.65c-1.75-1.59-2.09-4.08-0.93-6c1.18-1.96,3.47-2.81,5.72-2.07
		c0.66,0.22,1.3,0.54,1.91,0.89c7.39,4.26,14.83,8.44,22.12,12.87C55.94,87.04,56.93,88.89,57.61,89.66z"/>
	<path class="st0" d="M259.44,77.38c-1.11,1.34-1.97,3.1-3.38,3.95c-7.6,4.59-15.32,9-23.04,13.38c-2.84,1.61-5.76,0.85-7.13-1.59
		c-1.36-2.43-0.51-5.24,2.35-6.92c7.58-4.46,15.18-8.89,22.84-13.2C254.96,70.82,258.92,72.91,259.44,77.38z"/>
	<path class="st0" d="M95.07,231.2c-0.16,0.46-0.38,1.51-0.89,2.4c-4.36,7.64-8.74,15.27-13.2,22.85c-1.71,2.9-4.47,3.73-6.93,2.33
		c-2.5-1.42-3.12-4.13-1.62-7.12c0.04-0.08,0.09-0.15,0.13-0.23c4.36-7.54,8.62-15.14,13.16-22.56c0.84-1.38,2.69-2.59,4.28-2.95
		C92.75,225.3,95.06,227.72,95.07,231.2z"/>
	<path class="st0" d="M193.64,225.76c0.7,0.56,2.5,1.38,3.35,2.78c4.65,7.67,9.11,15.46,13.53,23.27c1.56,2.76,0.81,5.51-1.56,6.92
		c-2.35,1.4-5.22,0.74-6.82-1.96c-4.62-7.79-9.18-15.62-13.59-23.54C186.57,229.67,188.8,225.79,193.64,225.76z"/>
	<path class="st0" d="M58.12,193.42c-1.01,1.32-1.75,3.1-3.07,3.9c-7.75,4.69-15.6,9.21-23.48,13.68c-2.74,1.55-5.51,0.78-6.93-1.58
		c-1.41-2.34-0.73-5.2,1.98-6.8c7.79-4.62,15.62-9.19,23.53-13.6C53.7,187.04,57.58,189.27,58.12,193.42z"/>
	<path class="st0" d="M258.89,205.81c0,4.42-3,6.71-6.17,5.77c-0.99-0.29-1.92-0.85-2.84-1.38c-7.09-4.08-14.18-8.15-21.25-12.27
		c-3.19-1.86-4.2-4.65-2.73-7.22c1.48-2.59,4.37-3.13,7.6-1.28c7.41,4.23,14.83,8.44,22.13,12.86
		C257.19,203.23,258.21,205.05,258.89,205.81z"/>
	<path class="st0" d="M25.64,137.06c4.31,0,8.61-0.03,12.92,0.01c3.57,0.03,5.65,1.81,5.7,4.79c0.05,3.01-1.96,4.91-5.54,4.93
		c-8.88,0.06-17.75,0.06-26.63,0c-3.14-0.02-5.19-2.02-5.21-4.76c-0.02-2.91,2.04-4.9,5.31-4.95
		C16.68,137.01,21.16,137.06,25.64,137.06z"/>
	<path class="st0" d="M257.12,146.78c-4.31,0-8.61,0.03-12.92-0.01c-3.51-0.03-5.6-1.92-5.58-4.92c0.02-2.9,2-4.77,5.42-4.79
		c8.88-0.07,17.75-0.06,26.63-0.01c3.31,0.02,5.39,2.04,5.32,4.9c-0.06,2.92-2.1,4.78-5.43,4.82
		C266.09,146.82,261.6,146.78,257.12,146.78z"/>
	<path class="st1" d="M141.4,204.64c-34.63-0.12-62.7-28.33-62.53-62.83c0.18-34.66,28.04-62.42,62.62-62.37
		c34.64,0.04,62.85,28.35,62.54,62.74C203.71,176.88,175.76,204.76,141.4,204.64z M97.7,139.47c-0.19,3.44,0.25,5.98,2.91,6.75
		c1.53,0.44,3.9,0.15,5.03-0.81c1.18-1.01,1.5-3.19,1.9-4.92c0.71-3.16,0.81-6.5,1.84-9.54c4.54-13.49,16.5-22.25,30.85-22.91
		c4.32-0.2,6.65-2.11,6.46-5.29c-0.19-3.2-2.68-4.83-7-4.6C116.5,99.38,98.62,117.35,97.7,139.47z"/>
	<path class="st0" d="M97.7,139.47c0.92-22.12,18.8-40.09,41.98-41.33c4.32-0.23,6.81,1.4,7,4.6c0.19,3.19-2.14,5.1-6.46,5.29
		c-14.35,0.66-26.31,9.43-30.85,22.91c-1.02,3.04-1.13,6.38-1.84,9.54c-0.39,1.74-0.71,3.91-1.9,4.92c-1.13,0.97-3.5,1.26-5.03,0.81
		C97.95,145.45,97.5,142.91,97.7,139.47z"/>
</g>
</svg>
