<?xml version="1.0" encoding="utf-8"?>
<!-- Generator: Adobe Illustrator 23.1.0, SVG Export Plug-In . SVG Version: 6.00 Build 0)  -->
<svg version="1.1" id="Layer_1" xmlns="http://www.w3.org/2000/svg" xmlns:xlink="http://www.w3.org/1999/xlink" x="0px" y="0px"
	 viewBox="0 0 283.46 283.46" style="enable-background:new 0 0 283.46 283.46;" xml:space="preserve">
<style type="text/css">
	.st0{fill:#FFFFFF;}
</style>
<g>
	<path class="st0" d="M148.13,10.14c41.88,0,83.77,0,125.65,0c0,40.69,0,81.37,0,122.06c-0.89-3.71-1.69-7.45-2.68-11.14
		c-6.62-24.7-18.51-46.49-36.12-65.1c-19.22-20.31-42.2-34.41-69.23-41.73C159.93,12.66,154,11.5,148.13,10.14z"/>
	<path d="M148.13,10.14c5.88,1.35,11.8,2.52,17.62,4.09c27.03,7.33,50.02,21.42,69.23,41.73c17.61,18.61,29.5,40.4,36.12,65.1
		c0.99,3.69,1.79,7.42,2.68,11.14c0,0.34,0,0.68,0,1.03c-6.61,1.19-13.23,2.38-19.68,3.55C240.22,77.6,203.72,42.14,143.97,29.96
		c0.84-6.37,1.73-13.09,2.62-19.81C147.1,10.14,147.62,10.14,148.13,10.14z"/>
	<path d="M196.62,272.73c-13.57-0.34-26.99-3.79-39.86-9.38c-51.11-22.22-90.71-57.74-120.12-104.79
		c-10.68-17.08-19.05-35.29-23.58-55.05c-2.16-9.42-2.82-18.92-0.31-28.4c1.29-4.88,3.79-9.14,7.35-12.73
		c6.81-6.85,13.61-13.7,20.53-20.44c5.79-5.64,12.53-8.49,20.47-5.15c2.98,1.26,5.82,3.3,8.16,5.57
		c10.04,9.78,19.88,19.76,29.76,29.7c4.75,4.78,8.08,10.18,7.05,17.32c-0.73,5.07-3.61,8.95-7.09,12.45
		c-5.79,5.82-11.63,11.58-17.43,17.38c-3.1,3.09-3.13,3.79-1.31,7.87c6.62,14.81,16.77,27.11,27.63,38.87
		c10.76,11.66,22.61,22.1,36.08,30.56c4.61,2.9,9.59,5.22,14.38,7.83c2.34,1.27,4.03,0.26,5.66-1.39
		c6.02-6.07,12.04-12.13,18.1-18.16c3.5-3.48,7.37-6.31,12.48-7c5.24-0.7,9.76,0.89,13.82,4.06c1.34,1.05,2.61,2.21,3.82,3.41
		c9.69,9.65,19.36,19.32,29.03,28.98c3.19,3.18,5.88,6.71,6.85,11.2c1.24,5.73-0.11,11.08-4,15.27
		c-7.61,8.19-15.41,16.24-23.54,23.93C214.12,270.72,205.9,272.72,196.62,272.73z"/>
	<path d="M141.21,82.61c0.93-6.61,1.84-13.11,2.75-19.6c32.7,2.87,69.45,31.18,76.45,73.84c-6.52,1.13-13.04,2.25-19.75,3.41
		C193.27,108.42,173.54,89.23,141.21,82.61z"/>
</g>
</svg>
