<?xml version="1.0" encoding="utf-8"?>
<!-- Generator: Adobe Illustrator 23.1.0, SVG Export Plug-In . SVG Version: 6.00 Build 0)  -->
<svg version="1.1" id="Layer_1" xmlns="http://www.w3.org/2000/svg" xmlns:xlink="http://www.w3.org/1999/xlink" x="0px" y="0px"
	 viewBox="0 0 283.46 283.46" style="enable-background:new 0 0 283.46 283.46;" xml:space="preserve">
<style type="text/css">
	.st0{fill:#49AA21;}
</style>
<g>
	<path class="st0" d="M10.83,149.89c0-5.28,0-10.56,0-15.85c0.15-0.72,0.33-1.43,0.44-2.15c0.85-5.7,1.35-11.48,2.57-17.1
		c15.1-69.55,85.6-113.32,154.31-95.91c65.97,16.72,106.78,81.01,93.79,147.76c-9.94,51.09-51.19,91.42-102.5,100.14
		c-4.61,0.78-9.27,1.3-13.91,1.95c-5.28,0-10.57,0-15.85,0c-0.54-0.14-1.08-0.37-1.64-0.41c-10.74-0.76-21.27-2.74-31.36-6.48
		c-46.05-17.06-73.99-49.72-83.85-97.8C11.88,159.39,11.48,154.61,10.83,149.89z M137.63,78.39c-3.12,0.28-6.27,0.38-9.35,0.87
		C86.35,85.94,63,129.85,80.8,168.39c0.44,0.95,0.61,2.22,0.41,3.25c-1.95,9.94-4.03,19.86-6.02,29.8
		c-0.64,3.19,0.61,4.32,3.79,3.57c9.54-2.24,19.07-4.54,28.64-6.69c1.24-0.28,2.81-0.13,3.97,0.38c10.18,4.46,20.74,6.3,31.84,5.3
		c34.79-3.15,60.55-34.62,56.67-69.32C196.52,102.58,169.73,78.52,137.63,78.39z"/>
	<path class="st0" d="M91.81,187.95c1.09-5.26,1.92-10.04,3.11-14.73c0.87-3.44,0.45-6.34-1.16-9.59
		c-12.49-25.07-1.98-55,23.23-66.69c32.79-15.21,70.22,9,69.78,45.14c-0.44,35.96-37.82,59.26-70.3,43.66
		c-3.76-1.81-7.08-2.29-11.01-1.08C101.15,185.98,96.69,186.8,91.81,187.95z M156,172.2c5.94,0.39,10.92-4.08,14.69-10.36
		c1.65-2.75,0.45-5.69-2.64-6.74c-2.49-0.85-5.15-1.26-7.56-2.27c-4.76-2-8.68-1.61-11.89,2.87c-1.25,1.75-3.29,2.22-5.33,1.13
		c-8.19-4.41-14.97-10.46-20.42-17.98c-1.18-1.63-1.08-3.43,0.04-5.09c0.78-1.16,1.96-2.12,2.48-3.37c0.57-1.35,1.17-3.15,0.72-4.37
		c-1.51-4.17-3.38-8.22-5.3-12.23c-1.13-2.37-3.82-3.37-5.82-2c-4.83,3.3-8.65,7.46-9.04,13.71c-0.42,6.8,1.98,12.82,5.71,18.31
		c6.98,10.27,15.96,18.4,26.94,24.23C143.37,170.56,148.5,172.03,156,172.2z"/>
</g>
</svg>
